<mxfile host="app.diagrams.net" agent="Mozilla/5.0 (Windows NT 10.0; Win64; x64) AppleWebKit/537.36 (KHTML, like Gecko) Chrome/135.0.0.0 Safari/537.36" version="26.2.13">
  <diagram name="Page-1" id="xgkHv12_JwNywip6CyJi">
    <mxGraphModel dx="985" dy="1681" grid="1" gridSize="10" guides="1" tooltips="1" connect="1" arrows="1" fold="1" page="1" pageScale="1" pageWidth="827" pageHeight="1169" math="0" shadow="0">
      <root>
        <mxCell id="0" />
        <mxCell id="1" parent="0" />
        <mxCell id="5DIEF12n0zuqp4KruqZF-2" value="" style="rounded=0;whiteSpace=wrap;html=1;fillColor=none;movable=0;resizable=0;rotatable=0;deletable=0;editable=0;locked=1;connectable=0;" vertex="1" parent="1">
          <mxGeometry x="440" width="360" height="320" as="geometry" />
        </mxCell>
        <mxCell id="5DIEF12n0zuqp4KruqZF-3" value="" style="endArrow=none;html=1;rounded=0;" edge="1" parent="1">
          <mxGeometry width="50" height="50" relative="1" as="geometry">
            <mxPoint x="460" y="40" as="sourcePoint" />
            <mxPoint x="790" y="310" as="targetPoint" />
          </mxGeometry>
        </mxCell>
        <mxCell id="5DIEF12n0zuqp4KruqZF-4" value="&lt;font style=&quot;font-size: 16px;&quot;&gt;bandgap (eV)&lt;/font&gt;" style="text;html=1;align=center;verticalAlign=middle;whiteSpace=wrap;rounded=0;" vertex="1" parent="1">
          <mxGeometry x="557.5" y="350" width="125" height="30" as="geometry" />
        </mxCell>
        <mxCell id="5DIEF12n0zuqp4KruqZF-5" value="&lt;font style=&quot;font-size: 16px;&quot;&gt;diode saturation current (A/m&lt;sup style=&quot;&quot;&gt;2&lt;/sup&gt;)&lt;/font&gt;" style="text;html=1;align=center;verticalAlign=middle;whiteSpace=wrap;rounded=0;rotation=-90;" vertex="1" parent="1">
          <mxGeometry x="255" y="145" width="235" height="30" as="geometry" />
        </mxCell>
        <mxCell id="5DIEF12n0zuqp4KruqZF-6" value="&lt;font&gt;10&lt;sup style=&quot;&quot;&gt;10&lt;/sup&gt;&lt;/font&gt;" style="text;html=1;align=center;verticalAlign=middle;whiteSpace=wrap;rounded=0;" vertex="1" parent="1">
          <mxGeometry x="388" y="-17" width="60" height="30" as="geometry" />
        </mxCell>
        <mxCell id="5DIEF12n0zuqp4KruqZF-9" value="10&lt;sup&gt;-30&lt;/sup&gt;" style="text;html=1;align=center;verticalAlign=middle;whiteSpace=wrap;rounded=0;" vertex="1" parent="1">
          <mxGeometry x="390" y="143" width="60" height="30" as="geometry" />
        </mxCell>
        <mxCell id="5DIEF12n0zuqp4KruqZF-10" value="4.5" style="text;html=1;align=center;verticalAlign=middle;whiteSpace=wrap;rounded=0;" vertex="1" parent="1">
          <mxGeometry x="767" y="320" width="60" height="30" as="geometry" />
        </mxCell>
        <mxCell id="5DIEF12n0zuqp4KruqZF-11" value="0" style="text;html=1;align=center;verticalAlign=middle;whiteSpace=wrap;rounded=0;" vertex="1" parent="1">
          <mxGeometry x="411" y="320" width="60" height="30" as="geometry" />
        </mxCell>
        <mxCell id="5DIEF12n0zuqp4KruqZF-12" value="0.5" style="text;html=1;align=center;verticalAlign=middle;whiteSpace=wrap;rounded=0;" vertex="1" parent="1">
          <mxGeometry x="450" y="320" width="60" height="30" as="geometry" />
        </mxCell>
        <mxCell id="5DIEF12n0zuqp4KruqZF-13" value="1" style="text;html=1;align=center;verticalAlign=middle;whiteSpace=wrap;rounded=0;" vertex="1" parent="1">
          <mxGeometry x="490" y="320" width="60" height="30" as="geometry" />
        </mxCell>
        <mxCell id="5DIEF12n0zuqp4KruqZF-14" value="1.5" style="text;html=1;align=center;verticalAlign=middle;whiteSpace=wrap;rounded=0;" vertex="1" parent="1">
          <mxGeometry x="530" y="320" width="60" height="30" as="geometry" />
        </mxCell>
        <mxCell id="5DIEF12n0zuqp4KruqZF-15" value="2" style="text;html=1;align=center;verticalAlign=middle;whiteSpace=wrap;rounded=0;" vertex="1" parent="1">
          <mxGeometry x="570" y="320" width="60" height="30" as="geometry" />
        </mxCell>
        <mxCell id="5DIEF12n0zuqp4KruqZF-16" value="2.5" style="text;html=1;align=center;verticalAlign=middle;whiteSpace=wrap;rounded=0;" vertex="1" parent="1">
          <mxGeometry x="610" y="320" width="60" height="30" as="geometry" />
        </mxCell>
        <mxCell id="5DIEF12n0zuqp4KruqZF-17" value="3" style="text;html=1;align=center;verticalAlign=middle;whiteSpace=wrap;rounded=0;" vertex="1" parent="1">
          <mxGeometry x="650" y="320" width="60" height="30" as="geometry" />
        </mxCell>
        <mxCell id="5DIEF12n0zuqp4KruqZF-18" value="3.5" style="text;html=1;align=center;verticalAlign=middle;whiteSpace=wrap;rounded=0;" vertex="1" parent="1">
          <mxGeometry x="690" y="320" width="60" height="30" as="geometry" />
        </mxCell>
        <mxCell id="5DIEF12n0zuqp4KruqZF-19" value="4" style="text;html=1;align=center;verticalAlign=middle;whiteSpace=wrap;rounded=0;" vertex="1" parent="1">
          <mxGeometry x="730" y="320" width="60" height="30" as="geometry" />
        </mxCell>
        <mxCell id="5DIEF12n0zuqp4KruqZF-20" value="&lt;font&gt;10&lt;sup style=&quot;&quot;&gt;0&lt;/sup&gt;&lt;/font&gt;" style="text;html=1;align=center;verticalAlign=middle;whiteSpace=wrap;rounded=0;" vertex="1" parent="1">
          <mxGeometry x="386" y="23" width="60" height="30" as="geometry" />
        </mxCell>
        <mxCell id="5DIEF12n0zuqp4KruqZF-21" value="&lt;font&gt;10&lt;sup style=&quot;&quot;&gt;-10&lt;/sup&gt;&lt;/font&gt;" style="text;html=1;align=center;verticalAlign=middle;whiteSpace=wrap;rounded=0;" vertex="1" parent="1">
          <mxGeometry x="390" y="63" width="60" height="30" as="geometry" />
        </mxCell>
        <mxCell id="5DIEF12n0zuqp4KruqZF-22" value="&lt;font&gt;10&lt;sup style=&quot;&quot;&gt;-20&lt;/sup&gt;&lt;/font&gt;" style="text;html=1;align=center;verticalAlign=middle;whiteSpace=wrap;rounded=0;" vertex="1" parent="1">
          <mxGeometry x="390" y="103" width="60" height="30" as="geometry" />
        </mxCell>
        <mxCell id="5DIEF12n0zuqp4KruqZF-23" value="10&lt;sup&gt;-40&lt;/sup&gt;" style="text;html=1;align=center;verticalAlign=middle;whiteSpace=wrap;rounded=0;" vertex="1" parent="1">
          <mxGeometry x="391" y="183" width="60" height="30" as="geometry" />
        </mxCell>
        <mxCell id="5DIEF12n0zuqp4KruqZF-24" value="10&lt;sup&gt;-50&lt;/sup&gt;" style="text;html=1;align=center;verticalAlign=middle;whiteSpace=wrap;rounded=0;" vertex="1" parent="1">
          <mxGeometry x="391" y="223" width="60" height="30" as="geometry" />
        </mxCell>
        <mxCell id="5DIEF12n0zuqp4KruqZF-25" value="10&lt;sup&gt;-60&lt;/sup&gt;" style="text;html=1;align=center;verticalAlign=middle;whiteSpace=wrap;rounded=0;" vertex="1" parent="1">
          <mxGeometry x="391" y="263" width="60" height="30" as="geometry" />
        </mxCell>
        <mxCell id="5DIEF12n0zuqp4KruqZF-26" value="10&lt;sup&gt;-70&lt;/sup&gt;" style="text;html=1;align=center;verticalAlign=middle;whiteSpace=wrap;rounded=0;" vertex="1" parent="1">
          <mxGeometry x="391" y="303" width="60" height="30" as="geometry" />
        </mxCell>
      </root>
    </mxGraphModel>
  </diagram>
</mxfile>
